<?xml version="1.0" encoding="UTF-8"?>
<svg version="1.1" xmlns="http://www.w3.org/2000/svg" width="334" height="151">
<path d="M0 0 C110.22 0 220.44 0 334 0 C334 49.83 334 99.66 334 151 C223.78 151 113.56 151 0 151 C0 101.17 0 51.34 0 0 Z " fill="#FDFDFE" transform="translate(0,0)"/>
<path d="M0 0 C7.92 0 15.84 0 24 0 C27.63 14.19 31.26 28.38 35 43 C36.45926784 40.08146432 37.3722552 38.01724868 38.14501953 34.96582031 C38.44510422 33.79505951 38.44510422 33.79505951 38.75125122 32.60064697 C38.95966644 31.76821472 39.16808167 30.93578247 39.3828125 30.078125 C39.60194305 29.21813904 39.82107361 28.35815308 40.04684448 27.47210693 C40.74387149 24.73247747 41.43451347 21.99128439 42.125 19.25 C42.5972358 17.38921616 43.06988724 15.52853776 43.54296875 13.66796875 C44.70091868 9.11336569 45.85021742 4.5567029 47 0 C54.92 0 62.84 0 71 0 C72.17595868 15.20346581 73.24418625 30.4021183 74.125 45.625 C74.16929138 46.37584869 74.21358276 47.12669739 74.25921631 47.90029907 C74.71157826 55.60489838 75.12146618 63.27822155 75 71 C70.05 71 65.1 71 60 71 C59.26336759 65.53664298 58.77061122 60.12947815 58.5 54.625 C58.45939453 53.85623535 58.41878906 53.0874707 58.37695312 52.29541016 C58.20538227 49.04546231 58.04048671 45.79518427 57.875 42.54492188 C57.75233239 40.1548202 57.62623323 37.76491559 57.5 35.375 C57.46455078 34.65393066 57.42910156 33.93286133 57.39257812 33.18994141 C57.14024813 28.42112578 56.63816752 23.73307577 56 19 C55.8518837 19.59690643 55.7037674 20.19381287 55.55116272 20.80880737 C54.01292936 27.00589357 52.47141879 33.20215785 50.92797852 39.39794922 C50.35193654 41.71219176 49.77673837 44.02664451 49.20239258 46.34130859 C48.37801861 49.66298798 47.55064051 52.98390646 46.72265625 56.3046875 C46.46533218 57.34430634 46.20800812 58.38392517 45.94288635 59.45504761 C45.70271286 60.41589264 45.46253937 61.37673767 45.21508789 62.36669922 C44.89865074 63.63910965 44.89865074 63.63910965 44.57582092 64.93722534 C44 67 44 67 43 69 C38.05 69 33.1 69 28 69 C26.84154329 65.52462988 25.7489624 62.24612197 24.87084961 58.72631836 C24.67402084 57.94207993 24.47719208 57.15784149 24.2743988 56.34983826 C24.06912064 55.52154007 23.86384247 54.69324188 23.65234375 53.83984375 C23.43558487 52.97235001 23.21882599 52.10485626 22.99549866 51.21107483 C22.5397458 49.38505428 22.08513103 47.55874935 21.6315918 45.73217773 C20.9387452 42.94251364 20.24212764 40.15381184 19.54492188 37.36523438 C19.10134031 35.58599288 18.65797362 33.8066978 18.21484375 32.02734375 C18.00754135 31.19702133 17.80023895 30.36669891 17.58665466 29.51121521 C16.63850988 25.68740348 15.7236493 21.87428448 15 18 C14.59055009 23.29781198 14.18163985 28.59566526 13.77319336 33.89355469 C13.6346637 35.6894641 13.49599585 37.48536286 13.35717773 39.28125 C12.54017445 49.85215176 11.7430894 60.42360141 11 71 C6.05 71 1.1 71 -4 71 C-4.08319828 61.66619245 -3.81821205 52.46984383 -3.125 43.1640625 C-2.99182373 41.29601456 -2.99182373 41.29601456 -2.85595703 39.39022827 C-2.57528557 35.46813446 -2.28776914 31.54657875 -2 27.625 C-1.80627473 24.9427811 -1.61405609 22.26045493 -1.421875 19.578125 C-0.95313077 13.05169566 -0.47825317 6.52573913 0 0 Z " fill="#0562AF" transform="translate(32,21)"/>
<path d="M0 0 C7.34135883 4.56882438 9.88788723 9.72755831 12 18 C12 22.29 12 26.58 12 31 C0.45 31 -11.1 31 -23 31 C-21.02909649 36.14667797 -21.02909649 36.14667797 -17 39 C-13.40858866 40.19713711 -10.47319892 40.13248902 -6.6875 40.125 C-5.39199219 40.12757812 -4.09648437 40.13015625 -2.76171875 40.1328125 C0.59562923 40.01427685 3.7083127 39.64302729 7 39 C7.36402369 40.43503555 7.71586591 41.87316506 8.0625 43.3125 C8.35833984 44.51326172 8.35833984 44.51326172 8.66015625 45.73828125 C9 48 9 48 8 51 C-1.23884688 54.19160165 -14.98881774 55.1747999 -24.1875 51.375 C-26.1796875 50.25390625 -26.1796875 50.25390625 -28 49 C-28.64195313 48.57589844 -29.28390625 48.15179688 -29.9453125 47.71484375 C-35.57856545 43.48401151 -37.77076619 38.09744604 -39.75 31.5 C-40.74641101 21.53588994 -39.25528837 13.76697936 -32.9375 5.6875 C-23.97396394 -3.77507661 -11.50860794 -5.69308797 0 0 Z " fill="#E60635" transform="translate(148,38)"/>
<path d="M0 0 C6.93756855 -0.42078565 12.16012272 1.16989788 17.82421875 5.22265625 C26.38782729 13.83934501 25.82421875 21.74057608 25.82421875 34.22265625 C14.27421875 34.22265625 2.72421875 34.22265625 -9.17578125 34.22265625 C-6.09458278 40.697224 -6.09458278 40.697224 -0.17578125 43.22265625 C3.47305612 43.62059778 3.47305612 43.62059778 7.26171875 43.47265625 C8.51855469 43.4571875 9.77539062 43.44171875 11.0703125 43.42578125 C14.72966645 43.2277725 18.21024948 42.80089133 21.82421875 42.22265625 C22.31921875 47.66765625 22.31921875 47.66765625 22.82421875 53.22265625 C12.58162147 57.05214177 1.79105376 58.23742951 -8.86328125 55.15625 C-16.39340515 51.70180566 -21.21438851 47.11588692 -24.296875 39.42578125 C-26.42707011 31.6624035 -26.49080243 22.93312513 -22.98828125 15.59765625 C-18.80367319 8.52590241 -12.64439394 3.09349743 -4.80078125 0.41015625 C-3.1987727 0.29572707 -1.59774591 0.16350362 0 0 Z " fill="#0562AF" transform="translate(188.17578125,34.77734375)"/>
<path d="M0 0 C0 3.96 0 7.92 0 12 C-4.95 12 -9.9 12 -15 12 C-15.33 13.65 -15.66 15.3 -16 17 C-14.88625 17.556875 -13.7725 18.11375 -12.625 18.6875 C-11.53638672 19.23857422 -11.53638672 19.23857422 -10.42578125 19.80078125 C-8.77062252 20.61903202 -7.10023447 21.40700438 -5.41796875 22.16796875 C0.08192615 24.71589607 3.8554896 26.72533739 7 32 C8.34394209 36.62349887 8.25004999 40.11747061 6.9375 44.75 C3.82005309 49.97926578 -0.1014127 53.20408371 -6 55 C-9.10836262 55.28577121 -12.19303691 55.27913117 -15.3125 55.25 C-16.53743164 55.26160156 -16.53743164 55.26160156 -17.78710938 55.2734375 C-23.17957721 55.25625035 -27.82033469 54.50204333 -33 53 C-32.67 49.04 -32.34 45.08 -32 41 C-30.948125 41.33 -29.89625 41.66 -28.8125 42 C-23.04976788 43.45878856 -14.44346637 44.72173319 -9 42 C-9 40.35 -9 38.7 -9 37 C-9.94359375 36.52820313 -9.94359375 36.52820313 -10.90625 36.046875 C-12.6916694 35.1541653 -14.47543292 34.25813864 -16.2578125 33.359375 C-17.9276167 32.53160882 -19.60782463 31.72390339 -21.3046875 30.953125 C-26.36500487 28.62346946 -29.44220998 26.11558004 -32 21 C-32.53127855 16.15752665 -32.52541441 12.16029016 -30.5 7.6875 C-22.05721919 -1.38848937 -11.78375587 -2.54783911 0 0 Z " fill="#0462AF" transform="translate(249,36)"/>
<path d="M0 0 C5.28 0 10.56 0 16 0 C16.02505615 1.59505371 16.0501123 3.19010742 16.07592773 4.83349609 C16.16987819 10.73381012 16.2701288 16.63400301 16.37231445 22.53417969 C16.41571022 25.09111707 16.4573818 27.64808431 16.49731445 30.20507812 C16.55490469 33.87378959 16.61863138 37.54235011 16.68359375 41.2109375 C16.70030624 42.35992523 16.71701874 43.50891296 16.73423767 44.69271851 C16.75418289 45.7536673 16.77412811 46.81461609 16.79467773 47.90771484 C16.81799416 49.31336197 16.81799416 49.31336197 16.84178162 50.74740601 C16.85779985 53.03513791 16.85779985 53.03513791 18 55 C20.12576782 55.46651207 20.12576782 55.46651207 22.5625 55.625 C24.7590625 55.810625 24.7590625 55.810625 27 56 C27 60.29 27 64.58 27 69 C23.96843143 70.51578428 21.12033386 70.24971927 17.75 70.3125 C16.44546875 70.34988281 15.1409375 70.38726562 13.796875 70.42578125 C9.21256124 69.91169668 7.3631797 69.16841929 4 66 C-0.95056603 58.24056789 -0.47929691 49.76466469 -0.25 40.875 C-0.22988593 39.52346424 -0.2116439 38.17189926 -0.1953125 36.8203125 C-0.14853822 33.54611309 -0.0830014 30.27344752 0 27 C-2.31 27 -4.62 27 -7 27 C-7.02687279 25.18757948 -7.04633715 23.37504767 -7.0625 21.5625 C-7.07410156 20.55316406 -7.08570313 19.54382813 -7.09765625 18.50390625 C-7 16 -7 16 -6 15 C-4.02 15 -2.04 15 0 15 C0 10.05 0 5.1 0 0 Z " fill="#0A65B1" transform="translate(259,21)"/>
<path d="M0 0 C3.63 0 7.26 0 11 0 C12.86929614 3.24210722 14.72056558 6.492401 16.5625 9.75 C17.09552734 10.67039062 17.62855469 11.59078125 18.17773438 12.5390625 C18.67724609 13.42851563 19.17675781 14.31796875 19.69140625 15.234375 C20.15748291 16.05131836 20.62355957 16.86826172 21.10375977 17.70996094 C22.16151889 20.41270695 22.06176478 21.33900142 21 24 C20.28251048 25.46520701 19.51660615 26.90728024 18.71484375 28.328125 C18.26689453 29.12734375 17.81894531 29.9265625 17.35742188 30.75 C16.88884766 31.575 16.42027344 32.4 15.9375 33.25 C15.46505859 34.09046875 14.99261719 34.9309375 14.50585938 35.796875 C13.34144094 37.86695222 12.17127491 39.93379453 11 42 C7.37 42 3.74 42 0 42 C1.2737311 38.81567225 2.32257698 36.26842287 4.015625 33.40625 C4.37914062 32.76816406 4.74265625 32.13007812 5.1171875 31.47265625 C5.87630068 30.15075226 6.64731485 28.8356159 7.4296875 27.52734375 C9.59997686 23.73725723 9.59997686 23.73725723 9.4921875 19.51171875 C8.99976563 18.68285156 8.50734375 17.85398437 8 17 C7.34851157 15.76853631 6.70035374 14.53530752 6.0546875 13.30078125 C4.95803634 11.28493702 3.85356183 9.27359232 2.74609375 7.26367188 C0 2.20904876 0 2.20904876 0 0 Z " fill="#E60432" transform="translate(284,21)"/>
<path d="M0 0 C2.31 0 4.62 0 7 0 C7 4.62 7 9.24 7 14 C8.32 14 9.64 14 11 14 C11 9.38 11 4.76 11 0 C12.98 0 14.96 0 17 0 C17 4.62 17 9.24 17 14 C18.32 14 19.64 14 21 14 C21 9.38 21 4.76 21 0 C23.31 0 25.62 0 28 0 C28 6.27 28 12.54 28 19 C18.76 19 9.52 19 0 19 C0 12.73 0 6.46 0 0 Z " fill="#0862AF" transform="translate(220,110)"/>
<path d="M0 0 C7.26 0 14.52 0 22 0 C22 8.58 22 17.16 22 26 C19.69 26 17.38 26 15 26 C15 19.07 15 12.14 15 5 C12.36 5 9.72 5 7 5 C7 11.93 7 18.86 7 26 C4.69 26 2.38 26 0 26 C0 17.42 0 8.84 0 0 Z " fill="#025FAE" transform="translate(173,103)"/>
<path d="M0 0 C2.72122817 1.73605947 3.36063848 3.04914926 5 6 C5.7709911 10.11195254 5.19728042 11.65147126 3.125 15.3125 C1 18 1 18 -1 19 C-5.48512317 19.47664201 -9.56497124 19.80501613 -13.5625 17.5625 C-15.66611953 13.81256953 -16.34429202 10.29217387 -16 6 C-12.0892014 -0.47304597 -7.16757555 -1.1814685 0 0 Z " fill="#0A63B0" transform="translate(213,110)"/>
<path d="M0 0 C1.05832031 -0.04898438 2.11664063 -0.09796875 3.20703125 -0.1484375 C6.1875 0.375 6.1875 0.375 8.55859375 2.44140625 C10.59559985 6.10997119 10.59336874 8.51801128 10.4375 12.6875 C10.40140625 13.94175781 10.3653125 15.19601563 10.328125 16.48828125 C10.25851562 17.91720703 10.25851562 17.91720703 10.1875 19.375 C7.56222811 19.42882106 4.93805287 19.46858313 2.3125 19.5 C1.56613281 19.51675781 0.81976563 19.53351563 0.05078125 19.55078125 C-1.90444461 19.5683959 -3.85992021 19.47820189 -5.8125 19.375 C-7.8125 17.375 -7.8125 17.375 -8.125 13.9375 C-7.8125 10.375 -7.8125 10.375 -6.75 8.5625 C-3.93703812 6.83842659 -0.99755255 6.1562393 2.1875 5.375 C-0.4525 5.375 -3.0925 5.375 -5.8125 5.375 C-6.375 3.4375 -6.375 3.4375 -6.8125 1.375 C-5.01074298 -0.42675702 -2.43515322 0.07655863 0 0 Z " fill="#0963B0" transform="translate(276.8125,109.625)"/>
<path d="M0 0 C5.94 0 11.88 0 18 0 C18 1.65 18 3.3 18 5 C16.35 5 14.7 5 13 5 C13 9.62 13 14.24 13 19 C10.69 19 8.38 19 6 19 C6 14.38 6 9.76 6 5 C4.02 5 2.04 5 0 5 C0 3.35 0 1.7 0 0 Z " fill="#0660AE" transform="translate(250,110)"/>
<path d="M0 0 C3.01944008 0.92260669 3.85893458 1.80855408 5.75 4.375 C7 7 7 7 7 11 C0.4 11 -6.2 11 -13 11 C-12 4 -12 4 -9.875 1.5625 C-6.28146137 -0.39051013 -4.03995323 -0.44072217 0 0 Z " fill="#F9FBFC" transform="translate(192,46)"/>
<path d="M0 0 C3.24807785 0.69554798 4.80411173 1.89740194 6.93359375 4.4140625 C7.26359375 6.7240625 7.59359375 9.0340625 7.93359375 11.4140625 C1.33359375 11.4140625 -5.26640625 11.4140625 -12.06640625 11.4140625 C-10.77669927 3.67582063 -8.15615754 -0.58588655 0 0 Z " fill="#FEF9F9" transform="translate(136.06640625,45.5859375)"/>
<path d="M0 0 C2.97 0 5.94 0 9 0 C10.6875 2.6875 10.6875 2.6875 12 6 C11.25 8.875 11.25 8.875 9 11 C5.88142257 11.43451079 3.17414048 11.23001018 0 11 C0 7.37 0 3.74 0 0 Z " fill="#0461AF" transform="translate(278,37)"/>
<path d="M0 0 C1.32 0.33 2.64 0.66 4 1 C4 3.97 4 6.94 4 10 C2.35 10 0.7 10 -1 10 C-2.25 3.375 -2.25 3.375 0 0 Z " fill="#E8EEF6" transform="translate(206,114)"/>
<path d="M0 0 C3.63 0 7.26 0 11 0 C11 0.66 11 1.32 11 2 C7.7 2.33 4.4 2.66 1 3 C0.67 2.01 0.34 1.02 0 0 Z " fill="#EA3C58" transform="translate(284,21)"/>
<path d="M0 0 C0.99 0 1.98 0 3 0 C2.67 1.32 2.34 2.64 2 4 C0.68 4 -0.64 4 -2 4 C-1.34 2.68 -0.68 1.36 0 0 Z " fill="#DBE6F1" transform="translate(277,120)"/>
</svg>
