<svg xmlns="http://www.w3.org/2000/svg" width="16" height="16" viewBox="65 65 320 320" fill="none">
  <path fill="#E50234" d="
    M203.999969,374.931824
    C190.199966,374.932037 176.899948,374.932037 162.727249,374.932037
    C166.638596,367.491516 170.123505,360.658234 173.791397,353.924652
    C183.131409,336.778015 192.532883,319.664795 201.947708,302.559082
    C212.186325,283.956604 222.463654,265.375397 232.732925,246.789825
    C236.073624,240.743759 239.551270,234.770218 242.754791,228.652740
    C244.533585,225.255936 244.077179,221.883057 242.169098,218.432266
    C231.290497,198.758286 220.649689,178.952652 209.742874,159.294525
    C197.790314,137.751587 185.598953,116.341278 173.593689,94.827385
    C169.966888,88.328041 166.613281,81.676254 162.826080,74.510666
    C164.955002,74.342445 166.368637,74.134331 167.782410,74.133385
    C192.273224,74.116905 216.764175,74.160675 241.254761,74.084938
    C244.291138,74.075554 246.243408,74.551575 247.919678,77.688972
    C258.446533,97.391624 269.249237,116.947861 280.064636,136.495026
    C287.867096,150.596771 295.893311,164.574677 303.704376,178.671707
    C311.247284,192.284714 318.543427,206.035248 326.172607,219.599030
    C328.062408,222.958923 327.721344,225.670471 325.980560,228.821671
    C314.377197,249.826538 302.853912,270.875671 291.329742,291.924194
    C283.793335,305.689178 276.334198,319.496552 268.775818,333.249390
    C261.846283,345.858063 254.681305,358.340393 247.956024,371.056061
    C246.263809,374.255615 244.311646,375.042816 240.985001,374.996094
    C228.825439,374.825256 216.661972,374.930420 203.999969,374.931824
    z"/>
  <path fill="#0161AD" d="
    M188.947449,260.960815
    C188.917389,261.126984 188.887344,261.293182 188.639145,261.874573
    C188.230026,262.530884 188.086990,262.797699 187.991882,263.090179
    C187.991882,263.090179 187.898849,263.481049 187.672821,263.841797
    C187.251404,264.443573 187.104019,264.711060 187.004654,265.005005
    C187.004654,265.005005 187.000000,265.000000 186.640015,264.905823
    C182.472610,264.716553 178.664810,264.528442 174.857788,264.542633
    C159.371872,264.600342 143.886292,264.756439 128.400375,264.793823
    C124.005798,264.804413 121.888527,262.809235 121.924950,258.012390
    C122.096985,235.357040 122.087189,212.699219 121.946243,190.043488
    C121.917763,185.464890 123.645584,183.907623 128.136200,183.947495
    C145.627090,184.102798 163.120407,183.964142 180.612320,184.044907
    C183.080704,184.056290 185.546265,184.677185 188.013138,185.015945
    C188.013138,185.015945 187.975403,185.026260 188.081512,185.221008
    C188.350784,185.691116 188.544876,185.942596 188.769913,186.170181
    C195.311050,198.108826 201.885635,210.029465 208.337158,222.016327
    C208.927689,223.113510 209.323395,224.953247 208.808868,225.910004
    C202.912704,236.873795 196.824203,247.734161 190.774323,258.615051
    C190.619095,258.894226 190.320007,259.093414 189.737762,259.774719
    C189.191818,260.437531 189.045135,260.684631 188.947449,260.960815
    z"/>
</svg>
