<svg xmlns="http://www.w3.org/2000/svg" width="16" height="16" viewBox="0 0 36 36" fill="none">
  <path d="M35.6976 1C35.6976 1 28.9123 19.9806 26.5331 25.1632C24.1538 30.3458 20.0959 35 13.203 35C5.9112 35 0 29.1285 0 21.8857C1.30613e-05 16.0102 3.89006 11.0373 9.25145 9.3691L12.6812 17.0626C10.2296 17.3213 8.31974 19.3819 8.31973 21.8857C8.31973 24.5645 10.506 26.7362 13.203 26.7362C15.9 26.7362 18.0236 24.5645 18.0236 21.8857C18.0236 20.6281 17.6185 19.5161 17.182 18.5622C16.7457 17.6087 9.39277 1.01297 9.38702 1H35.6976Z" fill="#FFBE0C"/>
</svg>
